<mxfile host="app.diagrams.net" agent="Mozilla/5.0 (Windows NT 10.0; Win64; x64) AppleWebKit/537.36 (KHTML, like Gecko) Chrome/140.0.0.0 Safari/537.36" version="28.2.3">
  <diagram name="Bank-WebApp-Main" id="gZl4-MNB_K2jVca2RsHO">
    <mxGraphModel dx="784" dy="1116" grid="1" gridSize="10" guides="1" tooltips="1" connect="1" arrows="1" fold="1" page="1" pageScale="1" pageWidth="1169" pageHeight="1654" math="0" shadow="0">
      <root>
        <mxCell id="0" />
        <mxCell id="1" parent="0" />
        <mxCell id="KXbCjJBh53j-5__8pac8-1" value="" style="image;aspect=fixed;perimeter=ellipsePerimeter;html=1;align=center;shadow=0;dashed=0;spacingTop=3;image=img/lib/active_directory/user.svg;" parent="1" vertex="1">
          <mxGeometry x="450" y="470" width="18.5" height="50" as="geometry" />
        </mxCell>
        <mxCell id="KXbCjJBh53j-5__8pac8-2" value="" style="image;aspect=fixed;perimeter=ellipsePerimeter;html=1;align=center;shadow=0;dashed=0;spacingTop=3;image=img/lib/active_directory/user.svg;" parent="1" vertex="1">
          <mxGeometry x="300.75" y="470" width="18.5" height="50" as="geometry" />
        </mxCell>
        <mxCell id="KXbCjJBh53j-5__8pac8-4" value="USER" style="text;html=1;align=center;verticalAlign=middle;whiteSpace=wrap;rounded=0;" parent="1" vertex="1">
          <mxGeometry x="280" y="520" width="60" height="30" as="geometry" />
        </mxCell>
        <mxCell id="KXbCjJBh53j-5__8pac8-5" value="ADMIN" style="text;html=1;align=center;verticalAlign=middle;whiteSpace=wrap;rounded=0;" parent="1" vertex="1">
          <mxGeometry x="429.25" y="520" width="60" height="30" as="geometry" />
        </mxCell>
        <mxCell id="KXbCjJBh53j-5__8pac8-6" value="" style="rounded=1;whiteSpace=wrap;html=1;" parent="1" vertex="1">
          <mxGeometry x="255" y="290" width="125" height="160" as="geometry" />
        </mxCell>
        <mxCell id="KXbCjJBh53j-5__8pac8-9" value="&lt;h1 style=&quot;margin-top: 0px;&quot;&gt;USER&amp;nbsp;&lt;/h1&gt;&lt;div&gt;full account and transaction managment&lt;/div&gt;&lt;div&gt;(delete account, add daily limit, complete transfers)&amp;nbsp;&lt;/div&gt;" style="text;html=1;whiteSpace=wrap;overflow=hidden;rounded=0;" parent="1" vertex="1">
          <mxGeometry x="265" y="290" width="90" height="150" as="geometry" />
        </mxCell>
        <mxCell id="KXbCjJBh53j-5__8pac8-10" value="" style="rounded=1;whiteSpace=wrap;html=1;" parent="1" vertex="1">
          <mxGeometry x="404.25" y="290" width="125.75" height="160" as="geometry" />
        </mxCell>
        <mxCell id="KXbCjJBh53j-5__8pac8-12" value="&lt;h1 style=&quot;margin-top: 0px;&quot;&gt;ADMIN&lt;/h1&gt;&lt;div&gt;&lt;div&gt;user management, view/edit data, lock/unlock,&lt;/div&gt;&lt;div&gt;KYC flags.&lt;/div&gt;&lt;/div&gt;" style="text;html=1;whiteSpace=wrap;overflow=hidden;rounded=0;" parent="1" vertex="1">
          <mxGeometry x="410" y="290" width="110" height="150" as="geometry" />
        </mxCell>
        <mxCell id="KXbCjJBh53j-5__8pac8-13" value="" style="endArrow=classic;html=1;rounded=0;" parent="1" edge="1">
          <mxGeometry width="50" height="50" relative="1" as="geometry">
            <mxPoint x="309.58" y="550" as="sourcePoint" />
            <mxPoint x="310" y="630" as="targetPoint" />
          </mxGeometry>
        </mxCell>
        <mxCell id="KXbCjJBh53j-5__8pac8-14" value="" style="rounded=1;whiteSpace=wrap;html=1;fillColor=#ffe6cc;strokeColor=#d79b00;" parent="1" vertex="1">
          <mxGeometry x="250" y="630" width="120" height="40" as="geometry" />
        </mxCell>
        <mxCell id="KXbCjJBh53j-5__8pac8-15" style="edgeStyle=orthogonalEdgeStyle;rounded=0;orthogonalLoop=1;jettySize=auto;html=1;exitX=0.5;exitY=1;exitDx=0;exitDy=0;" parent="1" source="KXbCjJBh53j-5__8pac8-14" target="KXbCjJBh53j-5__8pac8-14" edge="1">
          <mxGeometry relative="1" as="geometry" />
        </mxCell>
        <mxCell id="KXbCjJBh53j-5__8pac8-17" value="LOG-IN" style="text;html=1;align=center;verticalAlign=middle;whiteSpace=wrap;rounded=0;" parent="1" vertex="1">
          <mxGeometry x="280" y="635" width="60" height="30" as="geometry" />
        </mxCell>
        <mxCell id="KXbCjJBh53j-5__8pac8-19" value="" style="ellipse;whiteSpace=wrap;html=1;fillColor=#dae8fc;strokeColor=#6c8ebf;" parent="1" vertex="1">
          <mxGeometry x="250" y="720" width="120" height="40" as="geometry" />
        </mxCell>
        <mxCell id="KXbCjJBh53j-5__8pac8-20" value="REGISTER" style="text;html=1;align=center;verticalAlign=middle;whiteSpace=wrap;rounded=0;" parent="1" vertex="1">
          <mxGeometry x="280" y="725" width="60" height="30" as="geometry" />
        </mxCell>
        <mxCell id="KXbCjJBh53j-5__8pac8-21" value="" style="endArrow=classic;html=1;rounded=0;" parent="1" edge="1">
          <mxGeometry width="50" height="50" relative="1" as="geometry">
            <mxPoint x="309.58000000000004" y="665" as="sourcePoint" />
            <mxPoint x="309.58000000000004" y="720" as="targetPoint" />
          </mxGeometry>
        </mxCell>
        <mxCell id="KXbCjJBh53j-5__8pac8-22" value="" style="endArrow=classic;html=1;rounded=0;" parent="1" edge="1">
          <mxGeometry width="50" height="50" relative="1" as="geometry">
            <mxPoint x="309.58" y="760" as="sourcePoint" />
            <mxPoint x="310" y="840" as="targetPoint" />
          </mxGeometry>
        </mxCell>
        <mxCell id="KXbCjJBh53j-5__8pac8-23" value="" style="endArrow=classic;html=1;rounded=0;exitX=0.25;exitY=1;exitDx=0;exitDy=0;" parent="1" source="KXbCjJBh53j-5__8pac8-24" edge="1">
          <mxGeometry width="50" height="50" relative="1" as="geometry">
            <mxPoint x="310" y="770" as="sourcePoint" />
            <mxPoint x="310" y="580" as="targetPoint" />
            <Array as="points">
              <mxPoint x="200" y="780" />
              <mxPoint x="200" y="580" />
            </Array>
          </mxGeometry>
        </mxCell>
        <mxCell id="KXbCjJBh53j-5__8pac8-24" value="TRUE" style="text;html=1;align=center;verticalAlign=middle;whiteSpace=wrap;rounded=0;rotation=90;" parent="1" vertex="1">
          <mxGeometry x="295" y="780" width="60" height="30" as="geometry" />
        </mxCell>
        <mxCell id="KXbCjJBh53j-5__8pac8-25" value="FALSE" style="text;html=1;align=center;verticalAlign=middle;whiteSpace=wrap;rounded=0;" parent="1" vertex="1">
          <mxGeometry x="205" y="750" width="60" height="30" as="geometry" />
        </mxCell>
        <mxCell id="KXbCjJBh53j-5__8pac8-26" value="" style="rounded=1;whiteSpace=wrap;html=1;fillColor=#fff2cc;strokeColor=#d6b656;gradientColor=#ffd966;" parent="1" vertex="1">
          <mxGeometry x="250" y="840" width="550" height="750" as="geometry" />
        </mxCell>
        <mxCell id="KXbCjJBh53j-5__8pac8-27" value="&lt;b&gt;WEB-APP&lt;/b&gt;" style="text;html=1;align=center;verticalAlign=middle;whiteSpace=wrap;rounded=0;" parent="1" vertex="1">
          <mxGeometry x="473.05" y="840" width="102.88" height="30" as="geometry" />
        </mxCell>
        <mxCell id="KXbCjJBh53j-5__8pac8-28" value="" style="rounded=1;whiteSpace=wrap;html=1;fillColor=#f8cecc;gradientColor=#ea6b66;strokeColor=#b85450;" parent="1" vertex="1">
          <mxGeometry x="300.75" y="960" width="120" height="130" as="geometry" />
        </mxCell>
        <mxCell id="KXbCjJBh53j-5__8pac8-29" value="&lt;b&gt;DAILY LIMIT&lt;/b&gt;" style="text;html=1;align=center;verticalAlign=middle;whiteSpace=wrap;rounded=0;" parent="1" vertex="1">
          <mxGeometry x="319.25" y="970" width="89.25" height="30" as="geometry" />
        </mxCell>
        <mxCell id="KXbCjJBh53j-5__8pac8-31" value="SET DAILY LIMIT - Change only with register from the user or from Admin" style="text;html=1;align=center;verticalAlign=middle;whiteSpace=wrap;rounded=0;" parent="1" vertex="1">
          <mxGeometry x="310" y="990" width="100" height="90" as="geometry" />
        </mxCell>
        <mxCell id="KXbCjJBh53j-5__8pac8-33" value="" style="rounded=1;whiteSpace=wrap;html=1;fillColor=#dae8fc;gradientColor=#7ea6e0;strokeColor=#6c8ebf;" parent="1" vertex="1">
          <mxGeometry x="464.5" y="960" width="120" height="130" as="geometry" />
        </mxCell>
        <mxCell id="KXbCjJBh53j-5__8pac8-34" value="&lt;b&gt;TRANSFER MONEY&lt;/b&gt;" style="text;html=1;align=center;verticalAlign=middle;whiteSpace=wrap;rounded=0;" parent="1" vertex="1">
          <mxGeometry x="473.05" y="970" width="100" height="30" as="geometry" />
        </mxCell>
        <mxCell id="KXbCjJBh53j-5__8pac8-35" value="Transfer Money to the same web app&lt;div&gt;&amp;nbsp; &lt;b&gt;(no fees)&amp;nbsp;&lt;/b&gt;&lt;/div&gt;" style="text;html=1;align=center;verticalAlign=middle;whiteSpace=wrap;rounded=0;" parent="1" vertex="1">
          <mxGeometry x="464.5" y="990" width="120" height="90" as="geometry" />
        </mxCell>
        <mxCell id="KXbCjJBh53j-5__8pac8-42" value="" style="rounded=1;whiteSpace=wrap;html=1;fillColor=#e6d0de;gradientColor=#d5739d;strokeColor=#996185;" parent="1" vertex="1">
          <mxGeometry x="297.31" y="1110" width="455.38" height="40" as="geometry" />
        </mxCell>
        <mxCell id="KXbCjJBh53j-5__8pac8-43" value="&lt;b&gt;OTP (One Time Password) For Every Transaction&lt;/b&gt;" style="text;html=1;align=center;verticalAlign=middle;whiteSpace=wrap;rounded=0;" parent="1" vertex="1">
          <mxGeometry x="366.31" y="1115" width="322.5" height="30" as="geometry" />
        </mxCell>
        <mxCell id="KXbCjJBh53j-5__8pac8-45" value="" style="rounded=1;whiteSpace=wrap;html=1;fillColor=#d5e8d4;gradientColor=#97d077;strokeColor=#82b366;" parent="1" vertex="1">
          <mxGeometry x="635.38" y="960" width="120" height="130" as="geometry" />
        </mxCell>
        <mxCell id="KXbCjJBh53j-5__8pac8-46" value="&lt;b&gt;TRANSFER MONEY&lt;/b&gt;" style="text;html=1;align=center;verticalAlign=middle;whiteSpace=wrap;rounded=0;" parent="1" vertex="1">
          <mxGeometry x="645.38" y="970" width="100" height="30" as="geometry" />
        </mxCell>
        <mxCell id="KXbCjJBh53j-5__8pac8-47" value="Transfer Money to other Bank Web app&lt;div&gt;&amp;nbsp; &lt;b&gt;(fees 1.5€)&amp;nbsp;&lt;/b&gt;&lt;/div&gt;" style="text;html=1;align=center;verticalAlign=middle;whiteSpace=wrap;rounded=0;" parent="1" vertex="1">
          <mxGeometry x="635.38" y="990" width="120" height="90" as="geometry" />
        </mxCell>
        <mxCell id="6KkzC2tM8emRwqw-PZav-2" value="" style="endArrow=none;startArrow=classic;html=1;rounded=0;startFill=1;endFill=0;" parent="1" edge="1">
          <mxGeometry width="50" height="50" relative="1" as="geometry">
            <mxPoint x="290" y="1280" as="sourcePoint" />
            <mxPoint x="310" y="560" as="targetPoint" />
            <Array as="points">
              <mxPoint x="160" y="1280" />
              <mxPoint x="160" y="560" />
            </Array>
          </mxGeometry>
        </mxCell>
        <mxCell id="6KkzC2tM8emRwqw-PZav-3" value="&lt;ul&gt;&lt;li&gt;Username&lt;/li&gt;&lt;li&gt;&lt;span style=&quot;background-color: transparent; color: light-dark(rgb(0, 0, 0), rgb(255, 255, 255));&quot;&gt;Email&lt;/span&gt;&lt;/li&gt;&lt;li&gt;Register Email&lt;/li&gt;&lt;li&gt;Password&lt;/li&gt;&lt;li style=&quot;&quot;&gt;Register Password&lt;/li&gt;&lt;/ul&gt;" style="rounded=1;whiteSpace=wrap;html=1;fillColor=#f5f5f5;gradientColor=#b3b3b3;strokeColor=#666666;align=left;" parent="1" vertex="1">
          <mxGeometry x="297.31" y="1215" width="220" height="240" as="geometry" />
        </mxCell>
        <mxCell id="6KkzC2tM8emRwqw-PZav-4" value="&lt;b&gt;User Create Account&lt;/b&gt;" style="text;html=1;align=center;verticalAlign=middle;whiteSpace=wrap;rounded=0;" parent="1" vertex="1">
          <mxGeometry x="310.38" y="1235" width="179.25" height="30" as="geometry" />
        </mxCell>
        <mxCell id="6KkzC2tM8emRwqw-PZav-26" value="" style="edgeStyle=orthogonalEdgeStyle;rounded=0;orthogonalLoop=1;jettySize=auto;html=1;" parent="1" source="6KkzC2tM8emRwqw-PZav-7" target="6KkzC2tM8emRwqw-PZav-3" edge="1">
          <mxGeometry relative="1" as="geometry" />
        </mxCell>
        <mxCell id="6KkzC2tM8emRwqw-PZav-7" value="" style="rounded=1;whiteSpace=wrap;html=1;fillColor=#e6d0de;gradientColor=#d5739d;strokeColor=#996185;" parent="1" vertex="1">
          <mxGeometry x="121.75" y="1295" width="100" height="180" as="geometry" />
        </mxCell>
        <mxCell id="6KkzC2tM8emRwqw-PZav-8" value="&lt;font style=&quot;font-size: 14px;&quot;&gt;&lt;b&gt;Email Verifacation&lt;/b&gt;&lt;/font&gt;" style="text;html=1;align=center;verticalAlign=middle;whiteSpace=wrap;rounded=0;rotation=270;" parent="1" vertex="1">
          <mxGeometry x="100" y="1370" width="142.5" height="30" as="geometry" />
        </mxCell>
        <mxCell id="6KkzC2tM8emRwqw-PZav-10" value="&lt;font style=&quot;font-size: 13px;&quot;&gt;&lt;b&gt;If The User Dont Have account&lt;/b&gt;&lt;/font&gt;" style="text;html=1;align=center;verticalAlign=middle;whiteSpace=wrap;rounded=0;" parent="1" vertex="1">
          <mxGeometry x="130" y="520" width="185" height="30" as="geometry" />
        </mxCell>
        <mxCell id="6KkzC2tM8emRwqw-PZav-12" value="" style="endArrow=classic;html=1;rounded=0;" parent="1" edge="1">
          <mxGeometry width="50" height="50" relative="1" as="geometry">
            <mxPoint x="120" y="1335" as="sourcePoint" />
            <mxPoint x="300" y="820" as="targetPoint" />
            <Array as="points">
              <mxPoint x="79.25" y="1335" />
              <mxPoint x="80" y="820" />
            </Array>
          </mxGeometry>
        </mxCell>
        <mxCell id="6KkzC2tM8emRwqw-PZav-18" value="" style="rounded=1;whiteSpace=wrap;html=1;fillColor=#ffcd28;gradientColor=#ffa500;strokeColor=#d79b00;" parent="1" vertex="1">
          <mxGeometry x="300" y="870" width="465.37" height="30" as="geometry" />
        </mxCell>
        <mxCell id="6KkzC2tM8emRwqw-PZav-19" value="&lt;b&gt;Automatic Create IBAN And Account Number For The New Users&lt;/b&gt;" style="text;html=1;align=center;verticalAlign=middle;whiteSpace=wrap;rounded=0;" parent="1" vertex="1">
          <mxGeometry x="377" y="870" width="305" height="30" as="geometry" />
        </mxCell>
        <mxCell id="6KkzC2tM8emRwqw-PZav-21" value="" style="rounded=1;whiteSpace=wrap;html=1;fillColor=#f5f5f5;gradientColor=#b3b3b3;strokeColor=#666666;" parent="1" vertex="1">
          <mxGeometry x="300" y="910" width="465.37" height="30" as="geometry" />
        </mxCell>
        <mxCell id="6KkzC2tM8emRwqw-PZav-22" value="&lt;b&gt;Account Balance = 0 For The New Users&lt;/b&gt;" style="text;html=1;align=center;verticalAlign=middle;whiteSpace=wrap;rounded=0;" parent="1" vertex="1">
          <mxGeometry x="377.37" y="910" width="308" height="30" as="geometry" />
        </mxCell>
        <mxCell id="6KkzC2tM8emRwqw-PZav-29" value="" style="rounded=1;whiteSpace=wrap;html=1;fillColor=#ffcd28;gradientColor=#ffa500;strokeColor=#d79b00;" parent="1" vertex="1">
          <mxGeometry x="540" y="1220" width="120" height="230" as="geometry" />
        </mxCell>
        <mxCell id="6KkzC2tM8emRwqw-PZav-30" value="&lt;b&gt;TopUp Deposit&lt;/b&gt;" style="text;html=1;align=center;verticalAlign=middle;whiteSpace=wrap;rounded=0;" parent="1" vertex="1">
          <mxGeometry x="547.69" y="1235" width="104.63" height="30" as="geometry" />
        </mxCell>
        <mxCell id="6KkzC2tM8emRwqw-PZav-31" value="Deposit Money From Other IBAN&amp;nbsp;" style="text;html=1;align=center;verticalAlign=middle;whiteSpace=wrap;rounded=0;" parent="1" vertex="1">
          <mxGeometry x="550.0100000000001" y="1265" width="102.31" height="175" as="geometry" />
        </mxCell>
        <mxCell id="6KkzC2tM8emRwqw-PZav-32" value="" style="endArrow=classic;html=1;rounded=0;entryX=0.035;entryY=0.608;entryDx=0;entryDy=0;entryPerimeter=0;" parent="1" target="KXbCjJBh53j-5__8pac8-28" edge="1">
          <mxGeometry width="50" height="50" relative="1" as="geometry">
            <mxPoint x="300" y="1180" as="sourcePoint" />
            <mxPoint x="310" y="1100" as="targetPoint" />
            <Array as="points">
              <mxPoint x="270" y="1180" />
              <mxPoint x="270" y="1039" />
            </Array>
          </mxGeometry>
        </mxCell>
        <mxCell id="6KkzC2tM8emRwqw-PZav-33" value="" style="endArrow=classic;startArrow=classic;html=1;rounded=0;" parent="1" edge="1">
          <mxGeometry width="50" height="50" relative="1" as="geometry">
            <mxPoint x="418.5" y="1024.5" as="sourcePoint" />
            <mxPoint x="468.5" y="1024.5" as="targetPoint" />
          </mxGeometry>
        </mxCell>
        <mxCell id="6KkzC2tM8emRwqw-PZav-35" value="" style="endArrow=classic;startArrow=classic;html=1;rounded=0;" parent="1" edge="1">
          <mxGeometry width="50" height="50" relative="1" as="geometry">
            <mxPoint x="585.38" y="1024.5" as="sourcePoint" />
            <mxPoint x="635.38" y="1024.5" as="targetPoint" />
          </mxGeometry>
        </mxCell>
        <mxCell id="6KkzC2tM8emRwqw-PZav-36" value="" style="endArrow=classic;html=1;rounded=0;" parent="1" edge="1">
          <mxGeometry width="50" height="50" relative="1" as="geometry">
            <mxPoint x="295" y="1140" as="sourcePoint" />
            <mxPoint x="315" y="1070" as="targetPoint" />
            <Array as="points">
              <mxPoint x="285" y="1140" />
              <mxPoint x="285" y="1070" />
            </Array>
          </mxGeometry>
        </mxCell>
        <mxCell id="6KkzC2tM8emRwqw-PZav-43" style="edgeStyle=orthogonalEdgeStyle;rounded=0;orthogonalLoop=1;jettySize=auto;html=1;entryX=0;entryY=0.5;entryDx=0;entryDy=0;" parent="1" source="6KkzC2tM8emRwqw-PZav-37" target="KXbCjJBh53j-5__8pac8-42" edge="1">
          <mxGeometry relative="1" as="geometry">
            <Array as="points">
              <mxPoint x="408" y="1460" />
              <mxPoint x="277" y="1460" />
              <mxPoint x="277" y="1130" />
            </Array>
          </mxGeometry>
        </mxCell>
        <mxCell id="6KkzC2tM8emRwqw-PZav-37" value="" style="rounded=1;whiteSpace=wrap;html=1;fillColor=#dae8fc;gradientColor=#7ea6e0;strokeColor=#6c8ebf;" parent="1" vertex="1">
          <mxGeometry x="296.81" y="1470" width="223.19" height="100" as="geometry" />
        </mxCell>
        <mxCell id="6KkzC2tM8emRwqw-PZav-38" value="" style="rounded=1;whiteSpace=wrap;html=1;fillColor=#e6d0de;gradientColor=#d5739d;strokeColor=#996185;" parent="1" vertex="1">
          <mxGeometry x="296.80999999999995" y="1160" width="455.38" height="40" as="geometry" />
        </mxCell>
        <mxCell id="6KkzC2tM8emRwqw-PZav-39" value="&lt;b&gt;MAX LIMIT 5000€&lt;/b&gt;" style="text;html=1;align=center;verticalAlign=middle;whiteSpace=wrap;rounded=0;" parent="1" vertex="1">
          <mxGeometry x="400" y="1170" width="220" height="20" as="geometry" />
        </mxCell>
        <mxCell id="6KkzC2tM8emRwqw-PZav-40" value="&lt;b&gt;Schedule Transactions&lt;/b&gt;" style="text;html=1;align=center;verticalAlign=middle;whiteSpace=wrap;rounded=0;" parent="1" vertex="1">
          <mxGeometry x="317.5" y="1485" width="179.62" height="30" as="geometry" />
        </mxCell>
        <mxCell id="6KkzC2tM8emRwqw-PZav-41" value="Daily And Monthly From Calendar" style="text;html=1;align=center;verticalAlign=middle;whiteSpace=wrap;rounded=0;" parent="1" vertex="1">
          <mxGeometry x="315" y="1520" width="185" height="30" as="geometry" />
        </mxCell>
        <mxCell id="6KkzC2tM8emRwqw-PZav-44" value="" style="rounded=0;whiteSpace=wrap;html=1;fillColor=#f8cecc;strokeColor=#b85450;gradientColor=light-dark(#6f221f, #d0635f);" parent="1" vertex="1">
          <mxGeometry x="820" y="1075" width="120" height="140" as="geometry" />
        </mxCell>
        <mxCell id="6KkzC2tM8emRwqw-PZav-45" value="" style="endArrow=classic;html=1;rounded=0;" parent="1" edge="1">
          <mxGeometry width="50" height="50" relative="1" as="geometry">
            <mxPoint x="752.69" y="1129.5" as="sourcePoint" />
            <mxPoint x="822.69" y="1129.5" as="targetPoint" />
          </mxGeometry>
        </mxCell>
        <mxCell id="6KkzC2tM8emRwqw-PZav-46" value="Timmer For Every Transaction 5&#39;" style="text;html=1;align=center;verticalAlign=middle;whiteSpace=wrap;rounded=0;" parent="1" vertex="1">
          <mxGeometry x="830" y="1085" width="100" height="115" as="geometry" />
        </mxCell>
        <mxCell id="6KkzC2tM8emRwqw-PZav-47" value="" style="rounded=1;whiteSpace=wrap;html=1;fillColor=#dae8fc;gradientColor=light-dark(#0a66f0, #436697);strokeColor=light-dark(#104da2, #5c79a3);" parent="1" vertex="1">
          <mxGeometry x="820" y="1230" width="120" height="300" as="geometry" />
        </mxCell>
        <mxCell id="6KkzC2tM8emRwqw-PZav-48" value="&lt;b&gt;Password Changer&lt;/b&gt;" style="text;html=1;align=center;verticalAlign=middle;whiteSpace=wrap;rounded=0;rotation=270;" parent="1" vertex="1">
          <mxGeometry x="750" y="1320" width="255" height="105" as="geometry" />
        </mxCell>
        <mxCell id="6KkzC2tM8emRwqw-PZav-49" value="" style="rounded=1;whiteSpace=wrap;html=1;fillColor=#e6d0de;gradientColor=#d5739d;strokeColor=#996185;" parent="1" vertex="1">
          <mxGeometry x="970" y="1297.5" width="120" height="150" as="geometry" />
        </mxCell>
        <mxCell id="6KkzC2tM8emRwqw-PZav-50" value="Register From The Email" style="text;html=1;align=center;verticalAlign=middle;whiteSpace=wrap;rounded=0;rotation=270;" parent="1" vertex="1">
          <mxGeometry x="965" y="1355" width="130" height="30" as="geometry" />
        </mxCell>
        <mxCell id="6KkzC2tM8emRwqw-PZav-51" value="" style="endArrow=classic;startArrow=classic;html=1;rounded=0;" parent="1" edge="1">
          <mxGeometry width="50" height="50" relative="1" as="geometry">
            <mxPoint x="940" y="1360" as="sourcePoint" />
            <mxPoint x="970" y="1360" as="targetPoint" />
            <Array as="points">
              <mxPoint x="960" y="1360" />
            </Array>
          </mxGeometry>
        </mxCell>
        <mxCell id="6KkzC2tM8emRwqw-PZav-52" value="" style="endArrow=classic;html=1;rounded=0;entryX=0;entryY=0.5;entryDx=0;entryDy=0;entryPerimeter=0;" parent="1" target="6KkzC2tM8emRwqw-PZav-54" edge="1">
          <mxGeometry width="50" height="50" relative="1" as="geometry">
            <mxPoint x="800" y="999" as="sourcePoint" />
            <mxPoint x="1080" y="1000" as="targetPoint" />
            <Array as="points">
              <mxPoint x="865" y="999" />
            </Array>
          </mxGeometry>
        </mxCell>
        <mxCell id="6KkzC2tM8emRwqw-PZav-53" value="" style="endArrow=classic;startArrow=classic;html=1;rounded=0;" parent="1" edge="1">
          <mxGeometry width="50" height="50" relative="1" as="geometry">
            <mxPoint x="790" y="1355" as="sourcePoint" />
            <mxPoint x="820" y="1355" as="targetPoint" />
            <Array as="points">
              <mxPoint x="810" y="1355" />
            </Array>
          </mxGeometry>
        </mxCell>
        <mxCell id="6KkzC2tM8emRwqw-PZav-54" value="" style="shape=cylinder3;whiteSpace=wrap;html=1;boundedLbl=1;backgroundOutline=1;size=15;fillColor=#dae8fc;gradientColor=#7ea6e0;strokeColor=#6c8ebf;" parent="1" vertex="1">
          <mxGeometry x="1440" y="910" width="160" height="180" as="geometry" />
        </mxCell>
        <mxCell id="6KkzC2tM8emRwqw-PZav-55" value="&lt;b&gt;DataBase&lt;/b&gt;" style="text;html=1;align=center;verticalAlign=middle;whiteSpace=wrap;rounded=0;" parent="1" vertex="1">
          <mxGeometry x="1480" y="977.5" width="80" height="45" as="geometry" />
        </mxCell>
        <mxCell id="6KkzC2tM8emRwqw-PZav-59" value="" style="rounded=1;whiteSpace=wrap;html=1;direction=east;fillColor=#f5f5f5;gradientColor=#b3b3b3;strokeColor=#666666;" parent="1" vertex="1">
          <mxGeometry x="297.31" y="1620" width="452.69" height="60" as="geometry" />
        </mxCell>
        <mxCell id="6KkzC2tM8emRwqw-PZav-60" value="&lt;b&gt;Delete Account&amp;nbsp;&lt;/b&gt;" style="text;html=1;align=center;verticalAlign=middle;whiteSpace=wrap;rounded=0;" parent="1" vertex="1">
          <mxGeometry x="330" y="1635" width="390" height="30" as="geometry" />
        </mxCell>
        <mxCell id="6KkzC2tM8emRwqw-PZav-61" value="" style="endArrow=classic;html=1;rounded=0;" parent="1" edge="1">
          <mxGeometry width="50" height="50" relative="1" as="geometry">
            <mxPoint x="750" y="1654" as="sourcePoint" />
            <mxPoint x="1090" y="1654" as="targetPoint" />
          </mxGeometry>
        </mxCell>
        <mxCell id="6KkzC2tM8emRwqw-PZav-62" value="" style="rounded=1;whiteSpace=wrap;html=1;fillColor=#d5e8d4;gradientColor=#97d077;strokeColor=#82b366;" parent="1" vertex="1">
          <mxGeometry x="1090" y="1540" width="190" height="190" as="geometry" />
        </mxCell>
        <mxCell id="6KkzC2tM8emRwqw-PZav-63" value="&lt;b&gt;Check If the Balance and theTransactions is 0&amp;nbsp;&lt;/b&gt;" style="text;html=1;align=center;verticalAlign=middle;whiteSpace=wrap;rounded=0;" parent="1" vertex="1">
          <mxGeometry x="1100" y="1550" width="170" height="170" as="geometry" />
        </mxCell>
        <mxCell id="6KkzC2tM8emRwqw-PZav-64" value="" style="endArrow=classic;html=1;rounded=0;entryX=-0.002;entryY=0.905;entryDx=0;entryDy=0;entryPerimeter=0;" parent="1" target="KXbCjJBh53j-5__8pac8-26" edge="1">
          <mxGeometry width="50" height="50" relative="1" as="geometry">
            <mxPoint x="290" y="1640" as="sourcePoint" />
            <mxPoint x="242.5" y="1519" as="targetPoint" />
            <Array as="points">
              <mxPoint x="200" y="1640" />
              <mxPoint x="200" y="1520" />
            </Array>
          </mxGeometry>
        </mxCell>
      </root>
    </mxGraphModel>
  </diagram>
</mxfile>
